<svg width="1280" height="720" xmlns="http://www.w3.org/2000/svg" xmlns:xlink="http://www.w3.org/1999/xlink" overflow="hidden"><defs><clipPath id="clip0"><rect x="0" y="0" width="1280" height="720"/></clipPath><clipPath id="clip1"><rect x="780" y="112" width="21" height="22"/></clipPath><clipPath id="clip2"><rect x="780" y="112" width="21" height="22"/></clipPath><clipPath id="clip3"><rect x="780" y="112" width="21" height="22"/></clipPath><clipPath id="clip4"><rect x="779" y="143" width="21" height="21"/></clipPath><clipPath id="clip5"><rect x="779" y="143" width="21" height="21"/></clipPath><clipPath id="clip6"><rect x="779" y="143" width="21" height="21"/></clipPath><clipPath id="clip7"><rect x="779" y="236" width="21" height="21"/></clipPath><clipPath id="clip8"><rect x="779" y="236" width="21" height="21"/></clipPath><clipPath id="clip9"><rect x="779" y="236" width="21" height="21"/></clipPath><clipPath id="clip10"><rect x="778" y="327" width="22" height="21"/></clipPath><clipPath id="clip11"><rect x="778" y="327" width="22" height="21"/></clipPath><clipPath id="clip12"><rect x="778" y="327" width="22" height="21"/></clipPath><clipPath id="clip13"><rect x="779" y="468" width="21" height="21"/></clipPath><clipPath id="clip14"><rect x="779" y="468" width="21" height="21"/></clipPath><clipPath id="clip15"><rect x="779" y="468" width="21" height="21"/></clipPath><clipPath id="clip16"><rect x="891" y="326" width="22" height="21"/></clipPath><clipPath id="clip17"><rect x="891" y="326" width="22" height="21"/></clipPath><clipPath id="clip18"><rect x="891" y="326" width="22" height="21"/></clipPath><clipPath id="clip19"><rect x="892" y="255" width="21" height="21"/></clipPath><clipPath id="clip20"><rect x="892" y="255" width="21" height="21"/></clipPath><clipPath id="clip21"><rect x="892" y="255" width="21" height="21"/></clipPath><clipPath id="clip22"><rect x="892" y="182" width="21" height="22"/></clipPath><clipPath id="clip23"><rect x="892" y="182" width="21" height="22"/></clipPath><clipPath id="clip24"><rect x="892" y="182" width="21" height="22"/></clipPath><clipPath id="clip25"><rect x="891" y="94" width="22" height="21"/></clipPath><clipPath id="clip26"><rect x="891" y="94" width="22" height="21"/></clipPath><clipPath id="clip27"><rect x="891" y="94" width="22" height="21"/></clipPath><clipPath id="clip28"><rect x="892" y="113" width="21" height="21"/></clipPath><clipPath id="clip29"><rect x="892" y="113" width="21" height="21"/></clipPath><clipPath id="clip30"><rect x="892" y="113" width="21" height="21"/></clipPath><clipPath id="clip31"><rect x="1021" y="183" width="21" height="22"/></clipPath><clipPath id="clip32"><rect x="1021" y="183" width="21" height="22"/></clipPath><clipPath id="clip33"><rect x="1021" y="183" width="21" height="22"/></clipPath><clipPath id="clip34"><rect x="1021" y="255" width="21" height="21"/></clipPath><clipPath id="clip35"><rect x="1021" y="255" width="21" height="21"/></clipPath><clipPath id="clip36"><rect x="1021" y="255" width="21" height="21"/></clipPath><clipPath id="clip37"><rect x="1021" y="355" width="22" height="22"/></clipPath><clipPath id="clip38"><rect x="1021" y="355" width="22" height="22"/></clipPath><clipPath id="clip39"><rect x="1021" y="355" width="22" height="22"/></clipPath><clipPath id="clip40"><rect x="1021" y="539" width="22" height="21"/></clipPath><clipPath id="clip41"><rect x="1021" y="539" width="22" height="21"/></clipPath><clipPath id="clip42"><rect x="1021" y="539" width="22" height="21"/></clipPath><clipPath id="clip43"><rect x="1150" y="397" width="21" height="21"/></clipPath><clipPath id="clip44"><rect x="1150" y="397" width="21" height="21"/></clipPath><clipPath id="clip45"><rect x="1150" y="397" width="21" height="21"/></clipPath><clipPath id="clip46"><rect x="1149" y="73" width="21" height="21"/></clipPath><clipPath id="clip47"><rect x="1149" y="73" width="21" height="21"/></clipPath><clipPath id="clip48"><rect x="1149" y="73" width="21" height="21"/></clipPath><clipPath id="clip49"><rect x="1150" y="182" width="21" height="21"/></clipPath><clipPath id="clip50"><rect x="1150" y="182" width="21" height="21"/></clipPath><clipPath id="clip51"><rect x="1150" y="182" width="21" height="21"/></clipPath><clipPath id="clip52"><rect x="1150" y="213" width="21" height="22"/></clipPath><clipPath id="clip53"><rect x="1150" y="213" width="21" height="22"/></clipPath><clipPath id="clip54"><rect x="1150" y="213" width="21" height="22"/></clipPath><clipPath id="clip55"><rect x="939" y="665" width="21" height="21"/></clipPath><clipPath id="clip56"><rect x="939" y="665" width="21" height="21"/></clipPath><clipPath id="clip57"><rect x="939" y="665" width="21" height="21"/></clipPath></defs><g clip-path="url(#clip0)"><rect x="0" y="0" width="1280" height="720" fill="#FFFFFF"/><path d="M500.5 564.5 518.974 564.5 518.974 599.702 537.447 599.702" stroke="#70AD47" stroke-width="1.33333" stroke-miterlimit="8" fill="none" fill-rule="evenodd"/><path d="M500.5 564.702 518.974 564.702 518.974 529.5 537.447 529.5" stroke="#70AD47" stroke-width="1.33333" stroke-miterlimit="8" fill="none" fill-rule="evenodd"/><path d="M279.5 493.5 297.974 493.5 297.974 563.903 316.447 563.903" stroke="#5B9BD5" stroke-width="1.33333" stroke-miterlimit="8" fill="none" fill-rule="evenodd"/><path d="M500.5 423.5 518.974 423.5 518.974 458.702 537.447 458.702" stroke="#70AD47" stroke-width="1.33333" stroke-miterlimit="8" fill="none" fill-rule="evenodd"/><path d="M500.5 423.702 518.974 423.702 518.974 388.5 537.447 388.5" stroke="#70AD47" stroke-width="1.33333" stroke-miterlimit="8" fill="none" fill-rule="evenodd"/><path d="M279.5 493.903 297.974 493.903 297.974 423.5 316.447 423.5" stroke="#5B9BD5" stroke-width="1.33333" stroke-miterlimit="8" fill="none" fill-rule="evenodd"/><path d="M57.5001 353.5 75.9738 353.5 75.9738 494.306 94.4474 494.306" stroke="#FFC000" stroke-width="1.33333" stroke-miterlimit="8" fill="none" fill-rule="evenodd"/><path d="M500.5 282.5 518.974 282.5 518.974 317.702 537.447 317.702" stroke="#70AD47" stroke-width="1.33333" stroke-miterlimit="8" fill="none" fill-rule="evenodd"/><path d="M500.5 282.702 518.974 282.702 518.974 247.5 537.447 247.5" stroke="#70AD47" stroke-width="1.33333" stroke-miterlimit="8" fill="none" fill-rule="evenodd"/><path d="M279.5 212.5 297.974 212.5 297.974 282.903 316.447 282.903" stroke="#5B9BD5" stroke-width="1.33333" stroke-miterlimit="8" fill="none" fill-rule="evenodd"/><path d="M500.5 141.5 518.974 141.5 518.974 176.702 537.447 176.702" stroke="#70AD47" stroke-width="1.33333" stroke-miterlimit="8" fill="none" fill-rule="evenodd"/><path d="M500.5 141.702 518.974 141.702 518.974 106.5 537.447 106.5" stroke="#70AD47" stroke-width="1.33333" stroke-miterlimit="8" fill="none" fill-rule="evenodd"/><path d="M279.5 211.903 297.974 211.903 297.974 141.5 316.447 141.5" stroke="#5B9BD5" stroke-width="1.33333" stroke-miterlimit="8" fill="none" fill-rule="evenodd"/><path d="M57.5001 353.306 75.9738 353.306 75.9738 212.5 94.4474 212.5" stroke="#FFC000" stroke-width="1.33333" stroke-miterlimit="8" fill="none" fill-rule="evenodd"/><rect x="1.50011" y="204.5" width="56" height="297" stroke="#FFFFFF" stroke-width="1.33333" stroke-miterlimit="8" fill="#ED7D31"/><text fill="#FFFFFF" font-family="Calibri,Calibri_MSFontService,sans-serif" font-weight="400" font-size="47" transform="matrix(-1.83697e-16 -1 1 -1.83697e-16 42.1694 443)">Organism</text><rect x="94.5001" y="184.5" width="185" height="56" stroke="#FFFFFF" stroke-width="1.33333" stroke-miterlimit="8" fill="#FFC000"/><text fill="#FFFFFF" font-family="Calibri,Calibri_MSFontService,sans-serif" font-weight="400" font-size="41" transform="translate(151.893 223)">GPP</text><rect x="316.5" y="113.5" width="184" height="57" stroke="#FFFFFF" stroke-width="1.33333" stroke-miterlimit="8" fill="#5B9BD5"/><text fill="#FFFFFF" font-family="Calibri,Calibri_MSFontService,sans-serif" font-weight="400" font-size="41" transform="translate(318.008 153)">Early</text><text fill="#FFFFFF" font-family="Calibri,Calibri_MSFontService,sans-serif" font-weight="400" font-size="41" transform="translate(409.255 153)">(72h)</text><rect x="537.5" y="78.5001" width="185" height="56" stroke="#FFFFFF" stroke-width="1.33333" stroke-miterlimit="8" fill="#70AD47"/><text fill="#FFFFFF" font-family="Calibri,Calibri_MSFontService,sans-serif" font-weight="400" font-size="41" transform="translate(599.773 118)">CTL</text><rect x="537.5" y="148.5" width="185" height="57" stroke="#FFFFFF" stroke-width="1.33333" stroke-miterlimit="8" fill="#70AD47"/><text fill="#FFFFFF" font-family="Calibri,Calibri_MSFontService,sans-serif" font-weight="400" font-size="41" transform="translate(584.253 188)">FaOH</text><rect x="316.5" y="254.5" width="184" height="56" stroke="#FFFFFF" stroke-width="1.33333" stroke-miterlimit="8" fill="#5B9BD5"/><text fill="#FFFFFF" font-family="Calibri,Calibri_MSFontService,sans-serif" font-weight="400" font-size="41" transform="translate(323.578 294)">Late (96h)</text><rect x="537.5" y="219.5" width="185" height="56" stroke="#FFFFFF" stroke-width="1.33333" stroke-miterlimit="8" fill="#70AD47"/><text fill="#FFFFFF" font-family="Calibri,Calibri_MSFontService,sans-serif" font-weight="400" font-size="41" transform="translate(599.773 258)">CTL</text><rect x="537.5" y="289.5" width="185" height="57" stroke="#FFFFFF" stroke-width="1.33333" stroke-miterlimit="8" fill="#70AD47"/><text fill="#FFFFFF" font-family="Calibri,Calibri_MSFontService,sans-serif" font-weight="400" font-size="41" transform="translate(584.253 329)">FaOH</text><rect x="94.5001" y="465.5" width="185" height="57" stroke="#FFFFFF" stroke-width="1.33333" stroke-miterlimit="8" fill="#FFC000"/><text fill="#FFFFFF" font-family="Calibri,Calibri_MSFontService,sans-serif" font-weight="400" font-size="41" transform="translate(146.223 505)">BWP</text><rect x="316.5" y="395.5" width="184" height="56" stroke="#FFFFFF" stroke-width="1.33333" stroke-miterlimit="8" fill="#5B9BD5"/><text fill="#FFFFFF" font-family="Calibri,Calibri_MSFontService,sans-serif" font-weight="400" font-size="41" transform="translate(318.008 434)">Early</text><text fill="#FFFFFF" font-family="Calibri,Calibri_MSFontService,sans-serif" font-weight="400" font-size="41" transform="translate(409.255 434)">(96h)</text><rect x="537.5" y="360.5" width="185" height="56" stroke="#FFFFFF" stroke-width="1.33333" stroke-miterlimit="8" fill="#70AD47"/><text fill="#FFFFFF" font-family="Calibri,Calibri_MSFontService,sans-serif" font-weight="400" font-size="41" transform="translate(599.773 399)">CTL</text><rect x="537.5" y="430.5" width="185" height="56" stroke="#FFFFFF" stroke-width="1.33333" stroke-miterlimit="8" fill="#70AD47"/><text fill="#FFFFFF" font-family="Calibri,Calibri_MSFontService,sans-serif" font-weight="400" font-size="41" transform="translate(584.253 470)">FaOH</text><rect x="316.5" y="536.5" width="184" height="56" stroke="#FFFFFF" stroke-width="1.33333" stroke-miterlimit="8" fill="#5B9BD5"/><text fill="#FFFFFF" font-family="Calibri,Calibri_MSFontService,sans-serif" font-weight="400" font-size="41" transform="translate(330.135 575)">Late (1w)</text><rect x="537.5" y="501.5" width="185" height="56" stroke="#FFFFFF" stroke-width="1.33333" stroke-miterlimit="8" fill="#70AD47"/><text fill="#FFFFFF" font-family="Calibri,Calibri_MSFontService,sans-serif" font-weight="400" font-size="41" transform="translate(599.773 540)">CTL</text><rect x="537.5" y="571.5" width="185" height="56" stroke="#FFFFFF" stroke-width="1.33333" stroke-miterlimit="8" fill="#70AD47"/><text fill="#FFFFFF" font-family="Calibri,Calibri_MSFontService,sans-serif" font-weight="400" font-size="41" transform="translate(584.253 610)">FaOH</text><path d="M781.5 83.5001C781.5 79.0818 784.858 75.5001 789 75.5001 793.142 75.5001 796.5 79.0818 796.5 83.5001 796.5 87.9183 793.142 91.5001 789 91.5001 784.858 91.5001 781.5 87.9183 781.5 83.5001Z" stroke="#2F528F" stroke-width="1.33333" stroke-miterlimit="8" fill="#4472C4" fill-rule="evenodd"/><path d="M781.5 103.5C781.5 99.0818 784.858 95.5001 789 95.5001 793.142 95.5001 796.5 99.0818 796.5 103.5 796.5 107.918 793.142 111.5 789 111.5 784.858 111.5 781.5 107.918 781.5 103.5Z" stroke="#2F528F" stroke-width="1.33333" stroke-miterlimit="8" fill="#4472C4" fill-rule="evenodd"/><path d="M781.5 123.5C781.5 119.082 784.858 115.5 789 115.5 793.142 115.5 796.5 119.082 796.5 123.5 796.5 127.918 793.142 131.5 789 131.5 784.858 131.5 781.5 127.918 781.5 123.5Z" stroke="#2F528F" stroke-width="1.33333" stroke-miterlimit="8" fill="#4472C4" fill-rule="evenodd"/><path d="M781.5 152.5C781.5 148.082 784.858 144.5 789 144.5 793.142 144.5 796.5 148.082 796.5 152.5 796.5 156.918 793.142 160.5 789 160.5 784.858 160.5 781.5 156.918 781.5 152.5Z" stroke="#2F528F" stroke-width="1.33333" stroke-miterlimit="8" fill="#4472C4" fill-rule="evenodd"/><path d="M781.5 172.5C781.5 168.082 784.858 164.5 789 164.5 793.142 164.5 796.5 168.082 796.5 172.5 796.5 176.918 793.142 180.5 789 180.5 784.858 180.5 781.5 176.918 781.5 172.5Z" stroke="#2F528F" stroke-width="1.33333" stroke-miterlimit="8" fill="#4472C4" fill-rule="evenodd"/><path d="M781.5 193.5C781.5 189.082 784.858 185.5 789 185.5 793.142 185.5 796.5 189.082 796.5 193.5 796.5 197.918 793.142 201.5 789 201.5 784.858 201.5 781.5 197.918 781.5 193.5Z" stroke="#2F528F" stroke-width="1.33333" stroke-miterlimit="8" fill="#4472C4" fill-rule="evenodd"/><path d="M781.5 224.5C781.5 220.082 784.858 216.5 789 216.5 793.142 216.5 796.5 220.082 796.5 224.5 796.5 228.918 793.142 232.5 789 232.5 784.858 232.5 781.5 228.918 781.5 224.5Z" stroke="#2F528F" stroke-width="1.33333" stroke-miterlimit="8" fill="#4472C4" fill-rule="evenodd"/><path d="M781.5 244.5C781.5 240.082 784.858 236.5 789 236.5 793.142 236.5 796.5 240.082 796.5 244.5 796.5 248.918 793.142 252.5 789 252.5 784.858 252.5 781.5 248.918 781.5 244.5Z" stroke="#2F528F" stroke-width="1.33333" stroke-miterlimit="8" fill="#4472C4" fill-rule="evenodd"/><path d="M781.5 265.5C781.5 261.082 784.858 257.5 789 257.5 793.142 257.5 796.5 261.082 796.5 265.5 796.5 269.918 793.142 273.5 789 273.5 784.858 273.5 781.5 269.918 781.5 265.5Z" stroke="#2F528F" stroke-width="1.33333" stroke-miterlimit="8" fill="#FFFFFF" fill-rule="evenodd"/><path d="M781.5 296.5C781.5 292.082 784.858 288.5 789 288.5 793.142 288.5 796.5 292.082 796.5 296.5 796.5 300.918 793.142 304.5 789 304.5 784.858 304.5 781.5 300.918 781.5 296.5Z" stroke="#2F528F" stroke-width="1.33333" stroke-miterlimit="8" fill="#4472C4" fill-rule="evenodd"/><path d="M781.5 317.5C781.5 313.082 784.858 309.5 789 309.5 793.142 309.5 796.5 313.082 796.5 317.5 796.5 321.918 793.142 325.5 789 325.5 784.858 325.5 781.5 321.918 781.5 317.5Z" stroke="#2F528F" stroke-width="1.33333" stroke-miterlimit="8" fill="#4472C4" fill-rule="evenodd"/><path d="M781.5 337.5C781.5 333.082 784.858 329.5 789 329.5 793.142 329.5 796.5 333.082 796.5 337.5 796.5 341.918 793.142 345.5 789 345.5 784.858 345.5 781.5 341.918 781.5 337.5Z" stroke="#2F528F" stroke-width="1.33333" stroke-miterlimit="8" fill="#4472C4" fill-rule="evenodd"/><path d="M781.5 366.5C781.5 362.082 784.858 358.5 789 358.5 793.142 358.5 796.5 362.082 796.5 366.5 796.5 370.918 793.142 374.5 789 374.5 784.858 374.5 781.5 370.918 781.5 366.5Z" stroke="#2F528F" stroke-width="1.33333" stroke-miterlimit="8" fill="#4472C4" fill-rule="evenodd"/><path d="M781.5 386.5C781.5 382.082 784.858 378.5 789 378.5 793.142 378.5 796.5 382.082 796.5 386.5 796.5 390.918 793.142 394.5 789 394.5 784.858 394.5 781.5 390.918 781.5 386.5Z" stroke="#2F528F" stroke-width="1.33333" stroke-miterlimit="8" fill="#4472C4" fill-rule="evenodd"/><path d="M781.5 406.5C781.5 402.082 784.858 398.5 789 398.5 793.142 398.5 796.5 402.082 796.5 406.5 796.5 410.918 793.142 414.5 789 414.5 784.858 414.5 781.5 410.918 781.5 406.5Z" stroke="#2F528F" stroke-width="1.33333" stroke-miterlimit="8" fill="#4472C4" fill-rule="evenodd"/><path d="M781.5 438.5C781.5 434.082 784.858 430.5 789 430.5 793.142 430.5 796.5 434.082 796.5 438.5 796.5 442.918 793.142 446.5 789 446.5 784.858 446.5 781.5 442.918 781.5 438.5Z" stroke="#2F528F" stroke-width="1.33333" stroke-miterlimit="8" fill="#4472C4" fill-rule="evenodd"/><path d="M781.5 458.5C781.5 454.082 784.858 450.5 789 450.5 793.142 450.5 796.5 454.082 796.5 458.5 796.5 462.918 793.142 466.5 789 466.5 784.858 466.5 781.5 462.918 781.5 458.5Z" stroke="#2F528F" stroke-width="1.33333" stroke-miterlimit="8" fill="#4472C4" fill-rule="evenodd"/><path d="M781.5 478.5C781.5 474.082 784.858 470.5 789 470.5 793.142 470.5 796.5 474.082 796.5 478.5 796.5 482.918 793.142 486.5 789 486.5 784.858 486.5 781.5 482.918 781.5 478.5Z" stroke="#2F528F" stroke-width="1.33333" stroke-miterlimit="8" fill="#4472C4" fill-rule="evenodd"/><path d="M781.5 507.5C781.5 503.082 784.858 499.5 789 499.5 793.142 499.5 796.5 503.082 796.5 507.5 796.5 511.918 793.142 515.5 789 515.5 784.858 515.5 781.5 511.918 781.5 507.5Z" stroke="#2F528F" stroke-width="1.33333" stroke-miterlimit="8" fill="#4472C4" fill-rule="evenodd"/><path d="M781.5 527.5C781.5 523.082 784.858 519.5 789 519.5 793.142 519.5 796.5 523.082 796.5 527.5 796.5 531.918 793.142 535.5 789 535.5 784.858 535.5 781.5 531.918 781.5 527.5Z" stroke="#2F528F" stroke-width="1.33333" stroke-miterlimit="8" fill="#4472C4" fill-rule="evenodd"/><path d="M781.5 548.5C781.5 544.082 784.858 540.5 789 540.5 793.142 540.5 796.5 544.082 796.5 548.5 796.5 552.918 793.142 556.5 789 556.5 784.858 556.5 781.5 552.918 781.5 548.5Z" stroke="#2F528F" stroke-width="1.33333" stroke-miterlimit="8" fill="#4472C4" fill-rule="evenodd"/><path d="M781.5 576.5C781.5 572.082 784.858 568.5 789 568.5 793.142 568.5 796.5 572.082 796.5 576.5 796.5 580.918 793.142 584.5 789 584.5 784.858 584.5 781.5 580.918 781.5 576.5Z" stroke="#2F528F" stroke-width="1.33333" stroke-miterlimit="8" fill="#4472C4" fill-rule="evenodd"/><path d="M781.5 597.5C781.5 593.082 784.858 589.5 789 589.5 793.142 589.5 796.5 593.082 796.5 597.5 796.5 601.918 793.142 605.5 789 605.5 784.858 605.5 781.5 601.918 781.5 597.5Z" stroke="#2F528F" stroke-width="1.33333" stroke-miterlimit="8" fill="#4472C4" fill-rule="evenodd"/><path d="M781.5 617.5C781.5 613.082 784.858 609.5 789 609.5 793.142 609.5 796.5 613.082 796.5 617.5 796.5 621.918 793.142 625.5 789 625.5 784.858 625.5 781.5 621.918 781.5 617.5Z" stroke="#2F528F" stroke-width="1.33333" stroke-miterlimit="8" fill="#4472C4" fill-rule="evenodd"/><path d="M894.5 83.5001C894.5 79.0818 897.858 75.5001 902 75.5001 906.142 75.5001 909.5 79.0818 909.5 83.5001 909.5 87.9183 906.142 91.5001 902 91.5001 897.858 91.5001 894.5 87.9183 894.5 83.5001Z" stroke="#2F528F" stroke-width="1.33333" stroke-miterlimit="8" fill="#4472C4" fill-rule="evenodd"/><path d="M894.5 103.5C894.5 99.0818 897.858 95.5001 902 95.5001 906.142 95.5001 909.5 99.0818 909.5 103.5 909.5 107.918 906.142 111.5 902 111.5 897.858 111.5 894.5 107.918 894.5 103.5Z" stroke="#2F528F" stroke-width="1.33333" stroke-miterlimit="8" fill="#4472C4" fill-rule="evenodd"/><path d="M894.5 123.5C894.5 119.082 897.858 115.5 902 115.5 906.142 115.5 909.5 119.082 909.5 123.5 909.5 127.918 906.142 131.5 902 131.5 897.858 131.5 894.5 127.918 894.5 123.5Z" stroke="#2F528F" stroke-width="1.33333" stroke-miterlimit="8" fill="#4472C4" fill-rule="evenodd"/><path d="M894.5 152.5C894.5 148.082 897.858 144.5 902 144.5 906.142 144.5 909.5 148.082 909.5 152.5 909.5 156.918 906.142 160.5 902 160.5 897.858 160.5 894.5 156.918 894.5 152.5Z" stroke="#2F528F" stroke-width="1.33333" stroke-miterlimit="8" fill="#4472C4" fill-rule="evenodd"/><path d="M894.5 172.5C894.5 168.082 897.858 164.5 902 164.5 906.142 164.5 909.5 168.082 909.5 172.5 909.5 176.918 906.142 180.5 902 180.5 897.858 180.5 894.5 176.918 894.5 172.5Z" stroke="#2F528F" stroke-width="1.33333" stroke-miterlimit="8" fill="#4472C4" fill-rule="evenodd"/><path d="M894.5 193.5C894.5 189.082 897.858 185.5 902 185.5 906.142 185.5 909.5 189.082 909.5 193.5 909.5 197.918 906.142 201.5 902 201.5 897.858 201.5 894.5 197.918 894.5 193.5Z" stroke="#2F528F" stroke-width="1.33333" stroke-miterlimit="8" fill="#4472C4" fill-rule="evenodd"/><path d="M894.5 224.5C894.5 220.082 897.858 216.5 902 216.5 906.142 216.5 909.5 220.082 909.5 224.5 909.5 228.918 906.142 232.5 902 232.5 897.858 232.5 894.5 228.918 894.5 224.5Z" stroke="#2F528F" stroke-width="1.33333" stroke-miterlimit="8" fill="#4472C4" fill-rule="evenodd"/><path d="M894.5 244.5C894.5 240.082 897.858 236.5 902 236.5 906.142 236.5 909.5 240.082 909.5 244.5 909.5 248.918 906.142 252.5 902 252.5 897.858 252.5 894.5 248.918 894.5 244.5Z" stroke="#2F528F" stroke-width="1.33333" stroke-miterlimit="8" fill="#4472C4" fill-rule="evenodd"/><path d="M894.5 265.5C894.5 261.082 897.858 257.5 902 257.5 906.142 257.5 909.5 261.082 909.5 265.5 909.5 269.918 906.142 273.5 902 273.5 897.858 273.5 894.5 269.918 894.5 265.5Z" stroke="#2F528F" stroke-width="1.33333" stroke-miterlimit="8" fill="#4472C4" fill-rule="evenodd"/><path d="M894.5 296.5C894.5 292.082 897.858 288.5 902 288.5 906.142 288.5 909.5 292.082 909.5 296.5 909.5 300.918 906.142 304.5 902 304.5 897.858 304.5 894.5 300.918 894.5 296.5Z" stroke="#2F528F" stroke-width="1.33333" stroke-miterlimit="8" fill="#4472C4" fill-rule="evenodd"/><path d="M894.5 317.5C894.5 313.082 897.858 309.5 902 309.5 906.142 309.5 909.5 313.082 909.5 317.5 909.5 321.918 906.142 325.5 902 325.5 897.858 325.5 894.5 321.918 894.5 317.5Z" stroke="#2F528F" stroke-width="1.33333" stroke-miterlimit="8" fill="#4472C4" fill-rule="evenodd"/><path d="M894.5 337.5C894.5 333.082 897.858 329.5 902 329.5 906.142 329.5 909.5 333.082 909.5 337.5 909.5 341.918 906.142 345.5 902 345.5 897.858 345.5 894.5 341.918 894.5 337.5Z" stroke="#2F528F" stroke-width="1.33333" stroke-miterlimit="8" fill="#4472C4" fill-rule="evenodd"/><path d="M894.5 366.5C894.5 362.082 897.858 358.5 902 358.5 906.142 358.5 909.5 362.082 909.5 366.5 909.5 370.918 906.142 374.5 902 374.5 897.858 374.5 894.5 370.918 894.5 366.5Z" stroke="#2F528F" stroke-width="1.33333" stroke-miterlimit="8" fill="#4472C4" fill-rule="evenodd"/><path d="M894.5 386.5C894.5 382.082 897.858 378.5 902 378.5 906.142 378.5 909.5 382.082 909.5 386.5 909.5 390.918 906.142 394.5 902 394.5 897.858 394.5 894.5 390.918 894.5 386.5Z" stroke="#2F528F" stroke-width="1.33333" stroke-miterlimit="8" fill="#4472C4" fill-rule="evenodd"/><path d="M894.5 406.5C894.5 402.082 897.858 398.5 902 398.5 906.142 398.5 909.5 402.082 909.5 406.5 909.5 410.918 906.142 414.5 902 414.5 897.858 414.5 894.5 410.918 894.5 406.5Z" stroke="#2F528F" stroke-width="1.33333" stroke-miterlimit="8" fill="#4472C4" fill-rule="evenodd"/><path d="M894.5 438.5C894.5 434.082 897.858 430.5 902 430.5 906.142 430.5 909.5 434.082 909.5 438.5 909.5 442.918 906.142 446.5 902 446.5 897.858 446.5 894.5 442.918 894.5 438.5Z" stroke="#2F528F" stroke-width="1.33333" stroke-miterlimit="8" fill="#4472C4" fill-rule="evenodd"/><path d="M894.5 458.5C894.5 454.082 897.858 450.5 902 450.5 906.142 450.5 909.5 454.082 909.5 458.5 909.5 462.918 906.142 466.5 902 466.5 897.858 466.5 894.5 462.918 894.5 458.5Z" stroke="#2F528F" stroke-width="1.33333" stroke-miterlimit="8" fill="#4472C4" fill-rule="evenodd"/><path d="M894.5 478.5C894.5 474.082 897.858 470.5 902 470.5 906.142 470.5 909.5 474.082 909.5 478.5 909.5 482.918 906.142 486.5 902 486.5 897.858 486.5 894.5 482.918 894.5 478.5Z" stroke="#2F528F" stroke-width="1.33333" stroke-miterlimit="8" fill="#FFFFFF" fill-rule="evenodd"/><path d="M894.5 507.5C894.5 503.082 897.858 499.5 902 499.5 906.142 499.5 909.5 503.082 909.5 507.5 909.5 511.918 906.142 515.5 902 515.5 897.858 515.5 894.5 511.918 894.5 507.5Z" stroke="#2F528F" stroke-width="1.33333" stroke-miterlimit="8" fill="#4472C4" fill-rule="evenodd"/><path d="M894.5 527.5C894.5 523.082 897.858 519.5 902 519.5 906.142 519.5 909.5 523.082 909.5 527.5 909.5 531.918 906.142 535.5 902 535.5 897.858 535.5 894.5 531.918 894.5 527.5Z" stroke="#2F528F" stroke-width="1.33333" stroke-miterlimit="8" fill="#4472C4" fill-rule="evenodd"/><path d="M894.5 548.5C894.5 544.082 897.858 540.5 902 540.5 906.142 540.5 909.5 544.082 909.5 548.5 909.5 552.918 906.142 556.5 902 556.5 897.858 556.5 894.5 552.918 894.5 548.5Z" stroke="#2F528F" stroke-width="1.33333" stroke-miterlimit="8" fill="#4472C4" fill-rule="evenodd"/><path d="M894.5 576.5C894.5 572.082 897.858 568.5 902 568.5 906.142 568.5 909.5 572.082 909.5 576.5 909.5 580.918 906.142 584.5 902 584.5 897.858 584.5 894.5 580.918 894.5 576.5Z" stroke="#2F528F" stroke-width="1.33333" stroke-miterlimit="8" fill="#4472C4" fill-rule="evenodd"/><path d="M894.5 597.5C894.5 593.082 897.858 589.5 902 589.5 906.142 589.5 909.5 593.082 909.5 597.5 909.5 601.918 906.142 605.5 902 605.5 897.858 605.5 894.5 601.918 894.5 597.5Z" stroke="#2F528F" stroke-width="1.33333" stroke-miterlimit="8" fill="#4472C4" fill-rule="evenodd"/><path d="M894.5 617.5C894.5 613.082 897.858 609.5 902 609.5 906.142 609.5 909.5 613.082 909.5 617.5 909.5 621.918 906.142 625.5 902 625.5 897.858 625.5 894.5 621.918 894.5 617.5Z" stroke="#2F528F" stroke-width="1.33333" stroke-miterlimit="8" fill="#4472C4" fill-rule="evenodd"/><path d="M1023.5 83.5001C1023.5 79.0818 1026.86 75.5001 1031 75.5001 1035.14 75.5001 1038.5 79.0818 1038.5 83.5001 1038.5 87.9183 1035.14 91.5001 1031 91.5001 1026.86 91.5001 1023.5 87.9183 1023.5 83.5001Z" stroke="#2F528F" stroke-width="1.33333" stroke-miterlimit="8" fill="#4472C4" fill-rule="evenodd"/><path d="M1023.5 103.5C1023.5 99.0818 1026.86 95.5001 1031 95.5001 1035.14 95.5001 1038.5 99.0818 1038.5 103.5 1038.5 107.918 1035.14 111.5 1031 111.5 1026.86 111.5 1023.5 107.918 1023.5 103.5Z" stroke="#2F528F" stroke-width="1.33333" stroke-miterlimit="8" fill="#4472C4" fill-rule="evenodd"/><path d="M1023.5 123.5C1023.5 119.082 1026.86 115.5 1031 115.5 1035.14 115.5 1038.5 119.082 1038.5 123.5 1038.5 127.918 1035.14 131.5 1031 131.5 1026.86 131.5 1023.5 127.918 1023.5 123.5Z" stroke="#2F528F" stroke-width="1.33333" stroke-miterlimit="8" fill="#4472C4" fill-rule="evenodd"/><path d="M1023.5 152.5C1023.5 148.082 1026.86 144.5 1031 144.5 1035.14 144.5 1038.5 148.082 1038.5 152.5 1038.5 156.918 1035.14 160.5 1031 160.5 1026.86 160.5 1023.5 156.918 1023.5 152.5Z" stroke="#2F528F" stroke-width="1.33333" stroke-miterlimit="8" fill="#4472C4" fill-rule="evenodd"/><path d="M1023.5 172.5C1023.5 168.082 1026.86 164.5 1031 164.5 1035.14 164.5 1038.5 168.082 1038.5 172.5 1038.5 176.918 1035.14 180.5 1031 180.5 1026.86 180.5 1023.5 176.918 1023.5 172.5Z" stroke="#2F528F" stroke-width="1.33333" stroke-miterlimit="8" fill="#4472C4" fill-rule="evenodd"/><path d="M1023.5 193.5C1023.5 189.082 1026.86 185.5 1031 185.5 1035.14 185.5 1038.5 189.082 1038.5 193.5 1038.5 197.918 1035.14 201.5 1031 201.5 1026.86 201.5 1023.5 197.918 1023.5 193.5Z" stroke="#2F528F" stroke-width="1.33333" stroke-miterlimit="8" fill="#4472C4" fill-rule="evenodd"/><path d="M1023.5 224.5C1023.5 220.082 1026.86 216.5 1031 216.5 1035.14 216.5 1038.5 220.082 1038.5 224.5 1038.5 228.918 1035.14 232.5 1031 232.5 1026.86 232.5 1023.5 228.918 1023.5 224.5Z" stroke="#2F528F" stroke-width="1.33333" stroke-miterlimit="8" fill="#4472C4" fill-rule="evenodd"/><path d="M1023.5 244.5C1023.5 240.082 1026.86 236.5 1031 236.5 1035.14 236.5 1038.5 240.082 1038.5 244.5 1038.5 248.918 1035.14 252.5 1031 252.5 1026.86 252.5 1023.5 248.918 1023.5 244.5Z" stroke="#2F528F" stroke-width="1.33333" stroke-miterlimit="8" fill="#4472C4" fill-rule="evenodd"/><path d="M1023.5 265.5C1023.5 261.082 1026.86 257.5 1031 257.5 1035.14 257.5 1038.5 261.082 1038.5 265.5 1038.5 269.918 1035.14 273.5 1031 273.5 1026.86 273.5 1023.5 269.918 1023.5 265.5Z" stroke="#2F528F" stroke-width="1.33333" stroke-miterlimit="8" fill="#4472C4" fill-rule="evenodd"/><path d="M1023.5 296.5C1023.5 292.082 1026.86 288.5 1031 288.5 1035.14 288.5 1038.5 292.082 1038.5 296.5 1038.5 300.918 1035.14 304.5 1031 304.5 1026.86 304.5 1023.5 300.918 1023.5 296.5Z" stroke="#2F528F" stroke-width="1.33333" stroke-miterlimit="8" fill="#4472C4" fill-rule="evenodd"/><path d="M1023.5 317.5C1023.5 313.082 1026.86 309.5 1031 309.5 1035.14 309.5 1038.5 313.082 1038.5 317.5 1038.5 321.918 1035.14 325.5 1031 325.5 1026.86 325.5 1023.5 321.918 1023.5 317.5Z" stroke="#2F528F" stroke-width="1.33333" stroke-miterlimit="8" fill="#4472C4" fill-rule="evenodd"/><path d="M1023.5 337.5C1023.5 333.082 1026.86 329.5 1031 329.5 1035.14 329.5 1038.5 333.082 1038.5 337.5 1038.5 341.918 1035.14 345.5 1031 345.5 1026.86 345.5 1023.5 341.918 1023.5 337.5Z" stroke="#2F528F" stroke-width="1.33333" stroke-miterlimit="8" fill="#4472C4" fill-rule="evenodd"/><path d="M1023.5 366.5C1023.5 362.082 1026.86 358.5 1031 358.5 1035.14 358.5 1038.5 362.082 1038.5 366.5 1038.5 370.918 1035.14 374.5 1031 374.5 1026.86 374.5 1023.5 370.918 1023.5 366.5Z" stroke="#2F528F" stroke-width="1.33333" stroke-miterlimit="8" fill="#4472C4" fill-rule="evenodd"/><path d="M1023.5 386.5C1023.5 382.082 1026.86 378.5 1031 378.5 1035.14 378.5 1038.5 382.082 1038.5 386.5 1038.5 390.918 1035.14 394.5 1031 394.5 1026.86 394.5 1023.5 390.918 1023.5 386.5Z" stroke="#2F528F" stroke-width="1.33333" stroke-miterlimit="8" fill="#4472C4" fill-rule="evenodd"/><path d="M1023.5 406.5C1023.5 402.082 1026.86 398.5 1031 398.5 1035.14 398.5 1038.5 402.082 1038.5 406.5 1038.5 410.918 1035.14 414.5 1031 414.5 1026.86 414.5 1023.5 410.918 1023.5 406.5Z" stroke="#2F528F" stroke-width="1.33333" stroke-miterlimit="8" fill="#4472C4" fill-rule="evenodd"/><path d="M1023.5 438.5C1023.5 434.082 1026.86 430.5 1031 430.5 1035.14 430.5 1038.5 434.082 1038.5 438.5 1038.5 442.918 1035.14 446.5 1031 446.5 1026.86 446.5 1023.5 442.918 1023.5 438.5Z" stroke="#2F528F" stroke-width="1.33333" stroke-miterlimit="8" fill="#4472C4" fill-rule="evenodd"/><path d="M1023.5 458.5C1023.5 454.082 1026.86 450.5 1031 450.5 1035.14 450.5 1038.5 454.082 1038.5 458.5 1038.5 462.918 1035.14 466.5 1031 466.5 1026.86 466.5 1023.5 462.918 1023.5 458.5Z" stroke="#2F528F" stroke-width="1.33333" stroke-miterlimit="8" fill="#4472C4" fill-rule="evenodd"/><path d="M1023.5 478.5C1023.5 474.082 1026.86 470.5 1031 470.5 1035.14 470.5 1038.5 474.082 1038.5 478.5 1038.5 482.918 1035.14 486.5 1031 486.5 1026.86 486.5 1023.5 482.918 1023.5 478.5Z" stroke="#2F528F" stroke-width="1.33333" stroke-miterlimit="8" fill="#4472C4" fill-rule="evenodd"/><path d="M1023.5 507.5C1023.5 503.082 1026.86 499.5 1031 499.5 1035.14 499.5 1038.5 503.082 1038.5 507.5 1038.5 511.918 1035.14 515.5 1031 515.5 1026.86 515.5 1023.5 511.918 1023.5 507.5Z" stroke="#2F528F" stroke-width="1.33333" stroke-miterlimit="8" fill="#4472C4" fill-rule="evenodd"/><path d="M1023.5 527.5C1023.5 523.082 1026.86 519.5 1031 519.5 1035.14 519.5 1038.5 523.082 1038.5 527.5 1038.5 531.918 1035.14 535.5 1031 535.5 1026.86 535.5 1023.5 531.918 1023.5 527.5Z" stroke="#2F528F" stroke-width="1.33333" stroke-miterlimit="8" fill="#4472C4" fill-rule="evenodd"/><path d="M1023.5 548.5C1023.5 544.082 1026.86 540.5 1031 540.5 1035.14 540.5 1038.5 544.082 1038.5 548.5 1038.5 552.918 1035.14 556.5 1031 556.5 1026.86 556.5 1023.5 552.918 1023.5 548.5Z" stroke="#2F528F" stroke-width="1.33333" stroke-miterlimit="8" fill="#4472C4" fill-rule="evenodd"/><path d="M1023.5 576.5C1023.5 572.082 1026.86 568.5 1031 568.5 1035.14 568.5 1038.5 572.082 1038.5 576.5 1038.5 580.918 1035.14 584.5 1031 584.5 1026.86 584.5 1023.5 580.918 1023.5 576.5Z" stroke="#2F528F" stroke-width="1.33333" stroke-miterlimit="8" fill="#4472C4" fill-rule="evenodd"/><path d="M1023.5 597.5C1023.5 593.082 1026.86 589.5 1031 589.5 1035.14 589.5 1038.5 593.082 1038.5 597.5 1038.5 601.918 1035.14 605.5 1031 605.5 1026.86 605.5 1023.5 601.918 1023.5 597.5Z" stroke="#2F528F" stroke-width="1.33333" stroke-miterlimit="8" fill="#4472C4" fill-rule="evenodd"/><path d="M1023.5 617.5C1023.5 613.082 1026.86 609.5 1031 609.5 1035.14 609.5 1038.5 613.082 1038.5 617.5 1038.5 621.918 1035.14 625.5 1031 625.5 1026.86 625.5 1023.5 621.918 1023.5 617.5Z" stroke="#2F528F" stroke-width="1.33333" stroke-miterlimit="8" fill="#4472C4" fill-rule="evenodd"/><path d="M1152.5 83.5001C1152.5 79.0818 1155.86 75.5001 1160 75.5001 1164.14 75.5001 1167.5 79.0818 1167.5 83.5001 1167.5 87.9183 1164.14 91.5001 1160 91.5001 1155.86 91.5001 1152.5 87.9183 1152.5 83.5001Z" stroke="#2F528F" stroke-width="1.33333" stroke-miterlimit="8" fill="#4472C4" fill-rule="evenodd"/><path d="M1152.5 103.5C1152.5 99.0818 1155.86 95.5001 1160 95.5001 1164.14 95.5001 1167.5 99.0818 1167.5 103.5 1167.5 107.918 1164.14 111.5 1160 111.5 1155.86 111.5 1152.5 107.918 1152.5 103.5Z" stroke="#2F528F" stroke-width="1.33333" stroke-miterlimit="8" fill="#4472C4" fill-rule="evenodd"/><path d="M1152.5 123.5C1152.5 119.082 1155.86 115.5 1160 115.5 1164.14 115.5 1167.5 119.082 1167.5 123.5 1167.5 127.918 1164.14 131.5 1160 131.5 1155.86 131.5 1152.5 127.918 1152.5 123.5Z" stroke="#2F528F" stroke-width="1.33333" stroke-miterlimit="8" fill="#4472C4" fill-rule="evenodd"/><path d="M1152.5 152.5C1152.5 148.082 1155.86 144.5 1160 144.5 1164.14 144.5 1167.5 148.082 1167.5 152.5 1167.5 156.918 1164.14 160.5 1160 160.5 1155.86 160.5 1152.5 156.918 1152.5 152.5Z" stroke="#2F528F" stroke-width="1.33333" stroke-miterlimit="8" fill="#4472C4" fill-rule="evenodd"/><path d="M1152.5 172.5C1152.5 168.082 1155.86 164.5 1160 164.5 1164.14 164.5 1167.5 168.082 1167.5 172.5 1167.5 176.918 1164.14 180.5 1160 180.5 1155.86 180.5 1152.5 176.918 1152.5 172.5Z" stroke="#2F528F" stroke-width="1.33333" stroke-miterlimit="8" fill="#4472C4" fill-rule="evenodd"/><path d="M1152.5 193.5C1152.5 189.082 1155.86 185.5 1160 185.5 1164.14 185.5 1167.5 189.082 1167.5 193.5 1167.5 197.918 1164.14 201.5 1160 201.5 1155.86 201.5 1152.5 197.918 1152.5 193.5Z" stroke="#2F528F" stroke-width="1.33333" stroke-miterlimit="8" fill="#4472C4" fill-rule="evenodd"/><path d="M1152.5 224.5C1152.5 220.082 1155.86 216.5 1160 216.5 1164.14 216.5 1167.5 220.082 1167.5 224.5 1167.5 228.918 1164.14 232.5 1160 232.5 1155.86 232.5 1152.5 228.918 1152.5 224.5Z" stroke="#2F528F" stroke-width="1.33333" stroke-miterlimit="8" fill="#4472C4" fill-rule="evenodd"/><path d="M1152.5 244.5C1152.5 240.082 1155.86 236.5 1160 236.5 1164.14 236.5 1167.5 240.082 1167.5 244.5 1167.5 248.918 1164.14 252.5 1160 252.5 1155.86 252.5 1152.5 248.918 1152.5 244.5Z" stroke="#2F528F" stroke-width="1.33333" stroke-miterlimit="8" fill="#4472C4" fill-rule="evenodd"/><path d="M1152.5 265.5C1152.5 261.082 1155.86 257.5 1160 257.5 1164.14 257.5 1167.5 261.082 1167.5 265.5 1167.5 269.918 1164.14 273.5 1160 273.5 1155.86 273.5 1152.5 269.918 1152.5 265.5Z" stroke="#2F528F" stroke-width="1.33333" stroke-miterlimit="8" fill="#4472C4" fill-rule="evenodd"/><path d="M1152.5 296.5C1152.5 292.082 1155.86 288.5 1160 288.5 1164.14 288.5 1167.5 292.082 1167.5 296.5 1167.5 300.918 1164.14 304.5 1160 304.5 1155.86 304.5 1152.5 300.918 1152.5 296.5Z" stroke="#2F528F" stroke-width="1.33333" stroke-miterlimit="8" fill="#4472C4" fill-rule="evenodd"/><path d="M1152.5 317.5C1152.5 313.082 1155.86 309.5 1160 309.5 1164.14 309.5 1167.5 313.082 1167.5 317.5 1167.5 321.918 1164.14 325.5 1160 325.5 1155.86 325.5 1152.5 321.918 1152.5 317.5Z" stroke="#2F528F" stroke-width="1.33333" stroke-miterlimit="8" fill="#4472C4" fill-rule="evenodd"/><path d="M1152.5 337.5C1152.5 333.082 1155.86 329.5 1160 329.5 1164.14 329.5 1167.5 333.082 1167.5 337.5 1167.5 341.918 1164.14 345.5 1160 345.5 1155.86 345.5 1152.5 341.918 1152.5 337.5Z" stroke="#2F528F" stroke-width="1.33333" stroke-miterlimit="8" fill="#4472C4" fill-rule="evenodd"/><path d="M1152.5 366.5C1152.5 362.082 1155.86 358.5 1160 358.5 1164.14 358.5 1167.5 362.082 1167.5 366.5 1167.5 370.918 1164.14 374.5 1160 374.5 1155.86 374.5 1152.5 370.918 1152.5 366.5Z" stroke="#2F528F" stroke-width="1.33333" stroke-miterlimit="8" fill="#4472C4" fill-rule="evenodd"/><path d="M1152.5 386.5C1152.5 382.082 1155.86 378.5 1160 378.5 1164.14 378.5 1167.5 382.082 1167.5 386.5 1167.5 390.918 1164.14 394.5 1160 394.5 1155.86 394.5 1152.5 390.918 1152.5 386.5Z" stroke="#2F528F" stroke-width="1.33333" stroke-miterlimit="8" fill="#4472C4" fill-rule="evenodd"/><path d="M1152.5 406.5C1152.5 402.082 1155.86 398.5 1160 398.5 1164.14 398.5 1167.5 402.082 1167.5 406.5 1167.5 410.918 1164.14 414.5 1160 414.5 1155.86 414.5 1152.5 410.918 1152.5 406.5Z" stroke="#2F528F" stroke-width="1.33333" stroke-miterlimit="8" fill="#4472C4" fill-rule="evenodd"/><path d="M1152.5 438.5C1152.5 434.082 1155.86 430.5 1160 430.5 1164.14 430.5 1167.5 434.082 1167.5 438.5 1167.5 442.918 1164.14 446.5 1160 446.5 1155.86 446.5 1152.5 442.918 1152.5 438.5Z" stroke="#2F528F" stroke-width="1.33333" stroke-miterlimit="8" fill="#4472C4" fill-rule="evenodd"/><path d="M1152.5 458.5C1152.5 454.082 1155.86 450.5 1160 450.5 1164.14 450.5 1167.5 454.082 1167.5 458.5 1167.5 462.918 1164.14 466.5 1160 466.5 1155.86 466.5 1152.5 462.918 1152.5 458.5Z" stroke="#2F528F" stroke-width="1.33333" stroke-miterlimit="8" fill="#4472C4" fill-rule="evenodd"/><path d="M1152.5 478.5C1152.5 474.082 1155.86 470.5 1160 470.5 1164.14 470.5 1167.5 474.082 1167.5 478.5 1167.5 482.918 1164.14 486.5 1160 486.5 1155.86 486.5 1152.5 482.918 1152.5 478.5Z" stroke="#2F528F" stroke-width="1.33333" stroke-miterlimit="8" fill="#4472C4" fill-rule="evenodd"/><path d="M1152.5 507.5C1152.5 503.082 1155.86 499.5 1160 499.5 1164.14 499.5 1167.5 503.082 1167.5 507.5 1167.5 511.918 1164.14 515.5 1160 515.5 1155.86 515.5 1152.5 511.918 1152.5 507.5Z" stroke="#2F528F" stroke-width="1.33333" stroke-miterlimit="8" fill="#4472C4" fill-rule="evenodd"/><path d="M1152.5 527.5C1152.5 523.082 1155.86 519.5 1160 519.5 1164.14 519.5 1167.5 523.082 1167.5 527.5 1167.5 531.918 1164.14 535.5 1160 535.5 1155.86 535.5 1152.5 531.918 1152.5 527.5Z" stroke="#2F528F" stroke-width="1.33333" stroke-miterlimit="8" fill="#4472C4" fill-rule="evenodd"/><path d="M1152.5 548.5C1152.5 544.082 1155.86 540.5 1160 540.5 1164.14 540.5 1167.5 544.082 1167.5 548.5 1167.5 552.918 1164.14 556.5 1160 556.5 1155.86 556.5 1152.5 552.918 1152.5 548.5Z" stroke="#2F528F" stroke-width="1.33333" stroke-miterlimit="8" fill="#4472C4" fill-rule="evenodd"/><path d="M1152.5 576.5C1152.5 572.082 1155.86 568.5 1160 568.5 1164.14 568.5 1167.5 572.082 1167.5 576.5 1167.5 580.918 1164.14 584.5 1160 584.5 1155.86 584.5 1152.5 580.918 1152.5 576.5Z" stroke="#2F528F" stroke-width="1.33333" stroke-miterlimit="8" fill="#4472C4" fill-rule="evenodd"/><path d="M1152.5 597.5C1152.5 593.082 1155.86 589.5 1160 589.5 1164.14 589.5 1167.5 593.082 1167.5 597.5 1167.5 601.918 1164.14 605.5 1160 605.5 1155.86 605.5 1152.5 601.918 1152.5 597.5Z" stroke="#2F528F" stroke-width="1.33333" stroke-miterlimit="8" fill="#4472C4" fill-rule="evenodd"/><path d="M1152.5 617.5C1152.5 613.082 1155.86 609.5 1160 609.5 1164.14 609.5 1167.5 613.082 1167.5 617.5 1167.5 621.918 1164.14 625.5 1160 625.5 1155.86 625.5 1152.5 621.918 1152.5 617.5Z" stroke="#2F528F" stroke-width="1.33333" stroke-miterlimit="8" fill="#4472C4" fill-rule="evenodd"/><rect x="736" y="70" width="479" height="68" stroke="#2F528F" stroke-width="4" stroke-miterlimit="8" fill="none"/><rect x="736" y="139" width="479" height="67" stroke="#2F528F" stroke-width="4" stroke-miterlimit="8" fill="none"/><rect x="736" y="207" width="479" height="72" stroke="#2F528F" stroke-width="4" stroke-miterlimit="8" fill="none"/><rect x="736" y="280" width="479" height="71" stroke="#2F528F" stroke-width="4" stroke-miterlimit="8" fill="none"/><rect x="736" y="353" width="479" height="67" stroke="#2F528F" stroke-width="4" stroke-miterlimit="8" fill="none"/><rect x="736" y="422" width="479" height="70" stroke="#2F528F" stroke-width="4" stroke-miterlimit="8" fill="none"/><rect x="736" y="562" width="479" height="67" stroke="#2F528F" stroke-width="4" stroke-miterlimit="8" fill="none"/><rect x="736" y="495" width="479" height="67" stroke="#2F528F" stroke-width="4" stroke-miterlimit="8" fill="none"/><path d="M843 70 843 628.69" stroke="#C55A11" stroke-width="4" stroke-miterlimit="8" fill="none" fill-rule="evenodd"/><path d="M966 72 966 630.69" stroke="#C55A11" stroke-width="4" stroke-miterlimit="8" fill="none" fill-rule="evenodd"/><path d="M1096 70 1096 628.69" stroke="#C55A11" stroke-width="4" stroke-miterlimit="8" fill="none" fill-rule="evenodd"/><text font-family="Calibri,Calibri_MSFontService,sans-serif" font-weight="700" font-size="15" transform="translate(741.956 43)">OPHIOSTOMA</text><text font-family="Calibri,Calibri_MSFontService,sans-serif" font-weight="700" font-size="15" transform="translate(894.818 43)">KT</text><text font-family="Calibri,Calibri_MSFontService,sans-serif" font-weight="700" font-size="15" transform="translate(984.807 27)">OPHIOSTOMA</text><text font-family="Calibri,Calibri_MSFontService,sans-serif" font-weight="700" font-size="15" transform="translate(1001.39 44)">consorcio</text><text font-family="Calibri,Calibri_MSFontService,sans-serif" font-weight="700" font-size="15" transform="translate(1152.17 28)">KT</text><text font-family="Calibri,Calibri_MSFontService,sans-serif" font-weight="700" font-size="15" transform="translate(1130.67 45)">consorcio</text><g clip-path="url(#clip1)"><g clip-path="url(#clip2)"><g clip-path="url(#clip3)"><path d="M18.2437 4.61562 16.3844 2.75625 10.5 8.64062 4.61562 2.75625 2.75625 4.61562 8.64062 10.5 2.75625 16.3844 4.61562 18.2437 10.5 12.3594 16.3844 18.2437 18.2437 16.3844 12.3594 10.5Z" fill="#C00000" transform="matrix(1 0 0 1.04762 780 112)"/></g></g></g><g clip-path="url(#clip4)"><g clip-path="url(#clip5)"><g clip-path="url(#clip6)"><path d="M797.244 147.616 795.384 145.756 789.5 151.641 783.616 145.756 781.756 147.616 787.641 153.5 781.756 159.384 783.616 161.244 789.5 155.359 795.384 161.244 797.244 159.384 791.359 153.5Z" fill="#C00000"/></g></g></g><g clip-path="url(#clip7)"><g clip-path="url(#clip8)"><g clip-path="url(#clip9)"><path d="M797.244 240.616 795.384 238.756 789.5 244.641 783.616 238.756 781.756 240.616 787.641 246.5 781.756 252.384 783.616 254.244 789.5 248.359 795.384 254.244 797.244 252.384 791.359 246.5Z" fill="#C00000"/></g></g></g><g clip-path="url(#clip10)"><g clip-path="url(#clip11)"><g clip-path="url(#clip12)"><path d="M18.2437 4.61562 16.3844 2.75625 10.5 8.64062 4.61562 2.75625 2.75625 4.61562 8.64062 10.5 2.75625 16.3844 4.61562 18.2437 10.5 12.3594 16.3844 18.2437 18.2437 16.3844 12.3594 10.5Z" fill="#C00000" transform="matrix(1.04762 0 0 1 778 327)"/></g></g></g><g clip-path="url(#clip13)"><g clip-path="url(#clip14)"><g clip-path="url(#clip15)"><path d="M797.244 472.616 795.384 470.756 789.5 476.641 783.616 470.756 781.756 472.616 787.641 478.5 781.756 484.384 783.616 486.244 789.5 480.359 795.384 486.244 797.244 484.384 791.359 478.5Z" fill="#C00000"/></g></g></g><g clip-path="url(#clip16)"><g clip-path="url(#clip17)"><g clip-path="url(#clip18)"><path d="M18.2437 4.61562 16.3844 2.75625 10.5 8.64062 4.61562 2.75625 2.75625 4.61562 8.64062 10.5 2.75625 16.3844 4.61562 18.2437 10.5 12.3594 16.3844 18.2437 18.2437 16.3844 12.3594 10.5Z" fill="#C00000" transform="matrix(1.04762 0 0 1 891 326)"/></g></g></g><g clip-path="url(#clip19)"><g clip-path="url(#clip20)"><g clip-path="url(#clip21)"><path d="M910.244 259.616 908.384 257.756 902.5 263.641 896.616 257.756 894.756 259.616 900.641 265.5 894.756 271.384 896.616 273.244 902.5 267.359 908.384 273.244 910.244 271.384 904.359 265.5Z" fill="#C00000"/></g></g></g><g clip-path="url(#clip22)"><g clip-path="url(#clip23)"><g clip-path="url(#clip24)"><path d="M18.2437 4.61562 16.3844 2.75625 10.5 8.64062 4.61562 2.75625 2.75625 4.61562 8.64062 10.5 2.75625 16.3844 4.61562 18.2437 10.5 12.3594 16.3844 18.2437 18.2437 16.3844 12.3594 10.5Z" fill="#C00000" transform="matrix(1 0 0 1.04762 892 182)"/></g></g></g><g clip-path="url(#clip25)"><g clip-path="url(#clip26)"><g clip-path="url(#clip27)"><path d="M18.2437 4.61562 16.3844 2.75625 10.5 8.64062 4.61562 2.75625 2.75625 4.61562 8.64062 10.5 2.75625 16.3844 4.61562 18.2437 10.5 12.3594 16.3844 18.2437 18.2437 16.3844 12.3594 10.5Z" fill="#C00000" transform="matrix(1.04762 0 0 1 891 94)"/></g></g></g><g clip-path="url(#clip28)"><g clip-path="url(#clip29)"><g clip-path="url(#clip30)"><path d="M910.244 117.616 908.384 115.756 902.5 121.641 896.616 115.756 894.756 117.616 900.641 123.5 894.756 129.384 896.616 131.244 902.5 125.359 908.384 131.244 910.244 129.384 904.359 123.5Z" fill="#C00000"/></g></g></g><text font-family="Arial Narrow,Arial Narrow_MSFontService,sans-serif" font-weight="700" font-stretch="condensed" font-size="15" transform="translate(937.905 111)">48h*</text><g clip-path="url(#clip31)"><g clip-path="url(#clip32)"><g clip-path="url(#clip33)"><path d="M18.2437 4.61562 16.3844 2.75625 10.5 8.64062 4.61562 2.75625 2.75625 4.61562 8.64062 10.5 2.75625 16.3844 4.61562 18.2437 10.5 12.3594 16.3844 18.2437 18.2437 16.3844 12.3594 10.5Z" fill="#C00000" transform="matrix(1 0 0 1.04762 1021 183)"/></g></g></g><g clip-path="url(#clip34)"><g clip-path="url(#clip35)"><g clip-path="url(#clip36)"><path d="M1039.24 259.616 1037.38 257.756 1031.5 263.641 1025.62 257.756 1023.76 259.616 1029.64 265.5 1023.76 271.384 1025.62 273.244 1031.5 267.359 1037.38 273.244 1039.24 271.384 1033.36 265.5Z" fill="#C00000"/></g></g></g><g clip-path="url(#clip37)"><g clip-path="url(#clip38)"><g clip-path="url(#clip39)"><path d="M1040.11 359.835 1038.16 357.888 1032 364.052 1025.84 357.888 1023.89 359.835 1030.05 366 1023.89 372.165 1025.84 374.112 1032 367.948 1038.16 374.112 1040.11 372.165 1033.95 366Z" fill="#C00000"/></g></g></g><g clip-path="url(#clip40)"><g clip-path="url(#clip41)"><g clip-path="url(#clip42)"><path d="M18.2437 4.61562 16.3844 2.75625 10.5 8.64062 4.61562 2.75625 2.75625 4.61562 8.64062 10.5 2.75625 16.3844 4.61562 18.2437 10.5 12.3594 16.3844 18.2437 18.2437 16.3844 12.3594 10.5Z" fill="#C00000" transform="matrix(1.04762 0 0 1 1021 539)"/></g></g></g><g clip-path="url(#clip43)"><g clip-path="url(#clip44)"><g clip-path="url(#clip45)"><path d="M1168.24 401.616 1166.38 399.756 1160.5 405.641 1154.62 399.756 1152.76 401.616 1158.64 407.5 1152.76 413.384 1154.62 415.244 1160.5 409.359 1166.38 415.244 1168.24 413.384 1162.36 407.5Z" fill="#C00000"/></g></g></g><g clip-path="url(#clip46)"><g clip-path="url(#clip47)"><g clip-path="url(#clip48)"><path d="M1167.24 77.6156 1165.38 75.7562 1159.5 81.6406 1153.62 75.7562 1151.76 77.6156 1157.64 83.5 1151.76 89.3844 1153.62 91.2438 1159.5 85.3594 1165.38 91.2438 1167.24 89.3844 1161.36 83.5Z" fill="#C00000"/></g></g></g><g clip-path="url(#clip49)"><g clip-path="url(#clip50)"><g clip-path="url(#clip51)"><path d="M1168.24 186.616 1166.38 184.756 1160.5 190.641 1154.62 184.756 1152.76 186.616 1158.64 192.5 1152.76 198.384 1154.62 200.244 1160.5 194.359 1166.38 200.244 1168.24 198.384 1162.36 192.5Z" fill="#C00000"/></g></g></g><g clip-path="url(#clip52)"><g clip-path="url(#clip53)"><g clip-path="url(#clip54)"><path d="M18.2437 4.61562 16.3844 2.75625 10.5 8.64062 4.61562 2.75625 2.75625 4.61562 8.64062 10.5 2.75625 16.3844 4.61562 18.2437 10.5 12.3594 16.3844 18.2437 18.2437 16.3844 12.3594 10.5Z" fill="#C00000" transform="matrix(1 0 0 1.04762 1150 213)"/></g></g></g><path d="M783.5 676.5C783.5 672.082 786.858 668.5 791 668.5 795.142 668.5 798.5 672.082 798.5 676.5 798.5 680.918 795.142 684.5 791 684.5 786.858 684.5 783.5 680.918 783.5 676.5Z" stroke="#2F528F" stroke-width="1.33333" stroke-miterlimit="8" fill="#4472C4" fill-rule="evenodd"/><path d="M942.5 676.5C942.5 672.082 945.858 668.5 950 668.5 954.142 668.5 957.5 672.082 957.5 676.5 957.5 680.918 954.142 684.5 950 684.5 945.858 684.5 942.5 680.918 942.5 676.5Z" stroke="#2F528F" stroke-width="1.33333" stroke-miterlimit="8" fill="#4472C4" fill-rule="evenodd"/><g clip-path="url(#clip55)"><g clip-path="url(#clip56)"><g clip-path="url(#clip57)"><path d="M957.244 669.616 955.384 667.756 949.5 673.641 943.616 667.756 941.756 669.616 947.641 675.5 941.756 681.384 943.616 683.244 949.5 677.359 955.384 683.244 957.244 681.384 951.359 675.5Z" fill="#C00000"/></g></g></g><path d="M1088.5 676.5C1088.5 672.082 1091.86 668.5 1096 668.5 1100.14 668.5 1103.5 672.082 1103.5 676.5 1103.5 680.918 1100.14 684.5 1096 684.5 1091.86 684.5 1088.5 680.918 1088.5 676.5Z" stroke="#2F528F" stroke-width="1.33333" stroke-miterlimit="8" fill="#FFFFFF" fill-rule="evenodd"/><text font-family="Calibri,Calibri_MSFontService,sans-serif" font-weight="700" font-size="15" transform="translate(812.389 682)">Replica OK</text><text font-family="Calibri,Calibri_MSFontService,sans-serif" font-weight="700" font-size="15" transform="translate(966.635 671)">Replica bad</text><text font-family="Calibri,Calibri_MSFontService,sans-serif" font-weight="700" font-size="15" transform="translate(966.635 688)">quality</text><text font-family="Calibri,Calibri_MSFontService,sans-serif" font-weight="700" font-size="15" transform="translate(1112.86 681)">Missing</text><path d="M913.5 75.5001C919.299 75.5001 924 76.2835 924 77.2499L924 103.879C924 104.846 928.701 105.629 934.5 105.629 928.701 105.629 924 106.413 924 107.379L924 199.75C924 200.717 919.299 201.5 913.5 201.5" stroke="#000000" stroke-width="3" stroke-miterlimit="8" fill="none" fill-rule="evenodd"/></g></svg>